HIERARCHY
ROOT hip
{
  OFFSET 0.0 0.0 0.0
  CHANNELS 6 Xposition Yposition Zposition Zrotation Yrotation Xrotation
  JOINT abdomen
  {
    OFFSET 0.0 20.6881 -0.73152
    CHANNELS 3 Zrotation Xrotation Yrotation
    JOINT chest
    {
      OFFSET 0.0 11.7043 -0.48768
      CHANNELS 3 Zrotation Xrotation Yrotation
      JOINT neck
      {
        OFFSET 0.0 22.1894 -2.19456
        CHANNELS 3 Zrotation Xrotation Yrotation
        JOINT head
        {
          OFFSET -0.24384 7.07133 1.2192
          CHANNELS 3 Zrotation Xrotation Yrotation
          JOINT leftEye
          {
            OFFSET 4.14528 8.04674 8.04672
            CHANNELS 3 Zrotation Xrotation Yrotation
            End Site
            {
              OFFSET 1.0 0.0 0.0
            }
          }
          JOINT rightEye
          {
            OFFSET -3.6576 8.04674 8.04672
            CHANNELS 3 Zrotation Xrotation Yrotation
            End Site
            {
              OFFSET 1.0 0.0 0.0
            }
          }
        }
      }
      JOINT rCollar
      {
        OFFSET -2.68224 19.2634 -4.8768
        CHANNELS 3 Zrotation Xrotation Yrotation
        JOINT rShldr
        {
          OFFSET -8.77824 -1.95073 1.46304
          CHANNELS 3 Zrotation Xrotation Yrotation
          JOINT rForeArm
          {
            OFFSET -28.1742 -1.7115 0.48768
            CHANNELS 3 Zrotation Xrotation Yrotation
            JOINT rHand
            {
              OFFSET -22.5879 0.773209 7.07136
              CHANNELS 3 Zrotation Xrotation Yrotation
              JOINT rThumb1
              {
                OFFSET -1.2192 -0.487915 3.41376
                CHANNELS 3 Zrotation Xrotation Yrotation
                JOINT rThumb2
                {
                  OFFSET -3.37035 -0.52449 3.41376
                  CHANNELS 3 Zrotation Xrotation Yrotation
                  End Site
                  {
                    OFFSET -1.78271 -1.18214 1.43049
                  }
                }
              }
              JOINT rIndex1
              {
                OFFSET -7.75947 0.938293 5.60832
                CHANNELS 3 Zrotation Xrotation Yrotation
                JOINT rIndex2
                {
                  OFFSET -2.54057 -0.884171 1.56538
                  CHANNELS 3 Zrotation Xrotation Yrotation
                  End Site
                  {
                    OFFSET -1.62519 -0.234802 1.16502
                  }
                }
              }
              JOINT rMid1
              {
                OFFSET -8.24714 1.18213 3.41376
                CHANNELS 3 Zrotation Xrotation Yrotation
                JOINT rMid2
                {
                  OFFSET -3.10165 -0.590103 1.0647
                  CHANNELS 3 Zrotation Xrotation Yrotation
                  End Site
                  {
                    OFFSET -2.48547 -0.328903 0.83742
                  }
                }
              }
              JOINT rRing1
              {
                OFFSET -8.82822 0.546677 1.51678
                CHANNELS 3 Zrotation Xrotation Yrotation
                JOINT rRing2
                {
                  OFFSET -2.60934 -0.819778 -0.0198488
                  CHANNELS 3 Zrotation Xrotation Yrotation
                  End Site
                  {
                    OFFSET -2.33842 -0.294052 0.168128
                  }
                }
              }
              JOINT rPinky1
              {
                OFFSET -8.27202 -0.0477905 -0.4584
                CHANNELS 3 Zrotation Xrotation Yrotation
                JOINT rPinky2
                {
                  OFFSET -1.82734 -0.647385 -0.700984
                  CHANNELS 3 Zrotation Xrotation Yrotation
                  End Site
                  {
                    OFFSET -1.69225 -0.51767 -0.607171
                  }
                }
              }
            }
          }
        }
      }
      JOINT lCollar
      {
        OFFSET 2.68224 19.2634 -4.8768
        CHANNELS 3 Zrotation Xrotation Yrotation
        JOINT lShldr
        {
          OFFSET 8.77824 -1.95073 1.46304
          CHANNELS 3 Zrotation Xrotation Yrotation
          JOINT lForeArm
          {
            OFFSET 28.1742 -1.7115 0.48768
            CHANNELS 3 Zrotation Xrotation Yrotation
            JOINT lHand
            {
              OFFSET 22.5879 0.773209 7.07136
              CHANNELS 3 Zrotation Xrotation Yrotation
              JOINT lThumb1
              {
                OFFSET 1.2192 -0.487915 3.41376
                CHANNELS 3 Zrotation Xrotation Yrotation
                JOINT lThumb2
                {
                  OFFSET 3.37035 -0.52449 3.41376
                  CHANNELS 3 Zrotation Xrotation Yrotation
                  End Site
                  {
                    OFFSET 1.78271 -1.18214 1.43049
                  }
                }
              }
              JOINT lIndex1
              {
                OFFSET 7.75947 0.938293 5.60832
                CHANNELS 3 Zrotation Xrotation Yrotation
                JOINT lIndex2
                {
                  OFFSET 2.54057 -0.884171 1.56538
                  CHANNELS 3 Zrotation Xrotation Yrotation
                  End Site
                  {
                    OFFSET 1.62519 -0.234802 1.16502
                  }
                }
              }
              JOINT lMid1
              {
                OFFSET 8.24714 1.18213 3.41376
                CHANNELS 3 Zrotation Xrotation Yrotation
                JOINT lMid2
                {
                  OFFSET 3.10165 -0.590103 1.0647
                  CHANNELS 3 Zrotation Xrotation Yrotation
                  End Site
                  {
                    OFFSET 2.48547 -0.328903 0.83742
                  }
                }
              }
              JOINT lRing1
              {
                OFFSET 8.82822 0.546677 1.51678
                CHANNELS 3 Zrotation Xrotation Yrotation
                JOINT lRing2
                {
                  OFFSET 2.60934 -0.819778 -0.0198488
                  CHANNELS 3 Zrotation Xrotation Yrotation
                  End Site
                  {
                    OFFSET 2.33842 -0.294052 0.168128
                  }
                }
              }
              JOINT lPinky1
              {
                OFFSET 8.27202 -0.0477905 -0.4584
                CHANNELS 3 Zrotation Xrotation Yrotation
                JOINT lPinky2
                {
                  OFFSET 1.82734 -0.647385 -0.700984
                  CHANNELS 3 Zrotation Xrotation Yrotation
                  End Site
                  {
                    OFFSET 1.69225 -0.51767 -0.607171
                  }
                }
              }
            }
          }
        }
      }
    }
  }
  JOINT rButtock
  {
    OFFSET -8.77824 4.35084 1.2192
    CHANNELS 3 Zrotation Xrotation Yrotation
    JOINT rThigh
    {
      OFFSET 0.0 -1.70687 -2.19456
      CHANNELS 3 Zrotation Xrotation Yrotation
      JOINT rShin
      {
        OFFSET 0.0 -36.8199 0.73152
        CHANNELS 3 Zrotation Xrotation Yrotation
        JOINT rFoot
        {
          OFFSET 0.73152 -45.1104 -5.12064
          CHANNELS 3 Zrotation Xrotation Yrotation
          End Site
          {
            OFFSET -1.1221 -3.69964 12.103
          }
        }
      }
    }
  }
  JOINT lButtock
  {
    OFFSET 8.77824 4.35084 1.2192
    CHANNELS 3 Zrotation Xrotation Yrotation
    JOINT lThigh
    {
      OFFSET 0.0 -1.70687 -2.19456
      CHANNELS 3 Zrotation Xrotation Yrotation
      JOINT lShin
      {
        OFFSET 0.0 -36.8199 0.73152
        CHANNELS 3 Zrotation Xrotation Yrotation
        JOINT lFoot
        {
          OFFSET -0.73152 -45.1104 -5.12064
          CHANNELS 3 Zrotation Xrotation Yrotation
          End Site
          {
            OFFSET 1.1221 -3.69964 12.103
          }
        }
      }
    }
  }
}
MOTION
Frames: 8
Frame Time: 0.00833333
0.0 77.7889 0.0 -4.0825 4.0704 11.9573 -5.01577 5.85307 8.06026 -2.55602 0.290539 2.11987 2.85752 9.97095 -2.53217 2.8811 -31.1846 -4.63473 -0.0 0.0 0.0 -0.0 0.0 0.0 0.0 0.0 0.0 0.0 0.0 0.0 0.0 0.0 0.0 -0.493782 19.5661 2.86316 -4.53014e-09 -4.90427e-09 3.24703e-09 -7.7766e-09 -8.58811e-09 5.66861e-09 -4.53014e-09 -4.90426e-09 3.24702e-09 7.73091 5.47488 0.417314 -4.53015e-09 -4.90426e-09 3.24703e-09 2.90554 0.965183 0.102902 -4.53014e-09 -4.90426e-09 3.24703e-09 10.2786 0.731801 0.0259123 -4.53014e-09 -4.90426e-09 3.24703e-09 2.22167 -0.733487 -0.20892 0.0 0.0 0.0 0.0 0.0 0.0 0.0 0.0 0.0 1.59471 -33.3859 5.31436 -2.47527e-09 -1.01296e-09 -9.18226e-11 -4.25725e-09 -1.74381e-09 -2.14155e-10 -2.47527e-09 -1.01295e-09 -9.18131e-11 -7.73091 5.47488 -0.417314 -2.47527e-09 -1.01296e-09 -9.18226e-11 -2.90554 0.965183 -0.102902 -2.47528e-09 -1.01296e-09 -9.1821e-11 -10.2786 0.731801 -0.0259123 -2.47527e-09 -1.01295e-09 -9.18226e-11 -2.22167 -0.733487 0.20892 -2.03217e-16 0.0 -3.88251e-19 -6.42208 -16.2496 -11.3256 -0.921758 57.9085 1.47194 -1.16656 3.48452 -23.3914 2.03217e-16 0.0 3.88251e-19 31.6518 -52.3895 47.8905 0.585552 45.3314 -0.0959389 0.391784 -0.764753 -2.76419
0.4039999999999999 77.9655 0.6500000000000057 -3.8198 4.6953 12.034 -5.10079 6.29949 7.68952 -2.53603 0.21642 2.00812 2.84778 10.1263 -2.58748 2.79762 -31.4435 -4.757 -0.0 0.0 0.0 -0.0 0.0 0.0 0.0 0.0 0.0 0.0 0.0 0.0 0.0 0.0 0.0 -0.489885 19.4701 2.84832 -4.34226e-09 -3.78274e-09 2.76982e-09 -7.45915e-09 -6.6417e-09 4.84138e-09 -4.34227e-09 -3.78273e-09 2.76981e-09 7.73091 5.47488 0.417314 -4.34227e-09 -3.78273e-09 2.76982e-09 2.90554 0.965183 0.102902 -4.34226e-09 -3.78273e-09 2.76982e-09 10.2786 0.731801 0.0259123 -4.34226e-09 -3.78273e-09 2.76982e-09 2.22167 -0.733487 -0.20892 0.0 0.0 0.0 0.0 0.0 0.0 0.0 0.0 0.0 1.59638 -33.3856 5.31519 -2.59886e-09 -1.04663e-09 1.92798e-10 -4.47743e-09 -1.80337e-09 2.73345e-10 -2.59886e-09 -1.04662e-09 1.92808e-10 -7.73091 5.47488 -0.417314 -2.59886e-09 -1.04663e-09 1.92798e-10 -2.90554 0.965183 -0.102902 -2.59886e-09 -1.04663e-09 1.92799e-10 -10.2786 0.731801 -0.0259123 -2.59885e-09 -1.04662e-09 1.92795e-10 -2.22167 -0.733487 0.20892 -2.03217e-16 0.0 -3.88251e-19 -7.21245 -18.3576 -12.2793 -1.10087 60.8527 1.64357 -0.791695 4.44449 -21.9699 2.03217e-16 0.0 3.88251e-19 30.455 -52.1904 47.3024 0.58339 45.2408 -0.0858965 0.296637 -1.24085 -3.34111
0.7960999999999991 78.1462 1.2959999999999923 -3.5842 5.2823 12.1056 -5.11352 6.72977 7.31734 -2.52717 0.140605 1.89801 2.83999 10.2835 -2.62343 2.66425 -31.6368 -4.85503 -0.0 0.0 0.0 -0.0 0.0 0.0 0.0 0.0 0.0 0.0 0.0 0.0 0.0 0.0 0.0 -0.492065 19.4775 2.85004 -3.63704e-09 -1.48383e-09 1.66872e-09 -6.2574e-09 -2.64616e-09 2.92956e-09 -3.63704e-09 -1.48383e-09 1.6687e-09 7.73091 5.47488 0.417314 -3.63704e-09 -1.48383e-09 1.66872e-09 2.90554 0.965183 0.102902 -3.63703e-09 -1.48383e-09 1.66872e-09 10.2786 0.731801 0.0259123 -3.63704e-09 -1.48383e-09 1.66872e-09 2.22167 -0.733487 -0.20892 0.0 0.0 0.0 0.0 0.0 0.0 0.0 0.0 0.0 1.57741 -33.1941 5.27767 -2.60404e-09 -1.02684e-09 6.67729e-10 -4.49923e-09 -1.7721e-09 1.09127e-09 -2.60404e-09 -1.02684e-09 6.67741e-10 -7.73091 5.47488 -0.417314 -2.60404e-09 -1.02684e-09 6.67728e-10 -2.90554 0.965183 -0.102902 -2.60405e-09 -1.02684e-09 6.67731e-10 -10.2786 0.731801 -0.0259123 -2.60404e-09 -1.02684e-09 6.67723e-10 -2.22167 -0.733487 0.20892 -2.03217e-16 0.0 -3.88251e-19 -8.02643 -20.5449 -13.1787 -1.32328 63.7717 1.86419 -0.509304 5.25905 -20.0097 2.03217e-16 0.0 3.88251e-19 29.269 -51.9548 46.6321 0.578754 45.1083 -0.081047 0.208273 -1.70355 -3.80271
1.1775000000000002 78.3297 1.9453000000000031 -3.3623 5.8285 12.1637 -5.10874 7.1471 6.94252 -2.50799 0.0642502 1.78827 2.83289 10.4284 -2.64829 2.52303 -31.7835 -4.93424 -0.0 0.0 0.0 -0.0 0.0 0.0 0.0 0.0 0.0 0.0 0.0 0.0 0.0 0.0 0.0 -0.485266 19.3447 2.82908 -2.72745e-09 8.96481e-10 4.81888e-10 -4.70387e-09 1.49462e-09 8.66709e-10 -2.72745e-09 8.96491e-10 4.81871e-10 7.73091 5.47488 0.417314 -2.72745e-09 8.96485e-10 4.81889e-10 2.90554 0.965183 0.102902 -2.72744e-09 8.96486e-10 4.81886e-10 10.2786 0.731801 0.0259123 -2.72745e-09 8.96486e-10 4.8189e-10 2.22167 -0.733487 -0.20892 0.0 0.0 0.0 0.0 0.0 0.0 0.0 0.0 0.0 1.52917 -32.7514 5.18893 -2.50961e-09 -9.60832e-10 1.12987e-09 -4.34923e-09 -1.66124e-09 1.8897e-09 -2.50961e-09 -9.60831e-10 1.12988e-09 -7.73091 5.47488 -0.417314 -2.5096e-09 -9.60832e-10 1.12987e-09 -2.90554 0.965183 -0.102902 -2.50961e-09 -9.60831e-10 1.12987e-09 -10.2786 0.731801 -0.0259123 -2.5096e-09 -9.60831e-10 1.12986e-09 -2.22167 -0.733487 0.20892 -2.03217e-16 0.0 -3.88251e-19 -8.87691 -22.7492 -14.0463 -1.59051 66.5713 2.13479 -0.327889 5.9005 -17.7042 2.03217e-16 0.0 3.88251e-19 28.0773 -51.6804 45.9 0.57254 44.9579 -0.0820805 0.121533 -2.18541 -4.18487
1.5535999999999994 78.5121 2.603200000000001 -3.1327 6.3466 12.2044 -5.14111 7.55468 6.56382 -2.45698 -0.011488 1.67763 2.8253 10.5465 -2.67034 2.41567 -31.9028 -5.00023 -0.0 0.0 0.0 -0.0 0.0 0.0 0.0 0.0 0.0 0.0 0.0 0.0 0.0 0.0 0.0 -0.455493 18.8281 2.74672 -1.92646e-09 2.26225e-09 -2.52517e-10 -3.3311e-09 3.87677e-09 -4.13568e-10 -1.92646e-09 2.26226e-09 -2.52536e-10 7.73091 5.47488 0.417314 -1.92646e-09 2.26225e-09 -2.52517e-10 2.90554 0.965183 0.102902 -1.92645e-09 2.26226e-09 -2.52521e-10 10.2786 0.731801 0.0259123 -1.92647e-09 2.26226e-09 -2.52517e-10 2.22167 -0.733487 -0.20892 0.0 0.0 0.0 0.0 0.0 0.0 0.0 0.0 0.0 1.44529 -31.9977 5.03774 -2.33433e-09 -8.5583e-10 1.37611e-09 -4.05407e-09 -1.482e-09 2.31868e-09 -2.33434e-09 -8.55828e-10 1.37613e-09 -7.73091 5.47488 -0.417314 -2.33433e-09 -8.55829e-10 1.37611e-09 -2.90554 0.965183 -0.102902 -2.33434e-09 -8.55828e-10 1.37612e-09 -10.2786 0.731801 -0.0259123 -2.33433e-09 -8.55829e-10 1.3761e-09 -2.22167 -0.733487 0.20892 -2.03217e-16 0.0 -3.88251e-19 -9.77574 -24.908 -14.9014 -1.89819 69.1573 2.45087 -0.236713 6.33642 -15.2496 2.03217e-16 0.0 3.88251e-19 26.8633 -51.3655 45.1263 0.565613 44.8134 -0.0896664 0.0292354 -2.71886 -4.52361
1.9255999999999993 78.6905 3.2720999999999947 -2.8788 6.8292 12.2228 -5.21918 7.96219 6.17783 -2.36003 -0.0864207 1.56502 2.81381 10.6346 -2.68958 2.34692 -31.9869 -5.05164 -0.0 0.0 0.0 -0.0 0.0 0.0 0.0 0.0 0.0 0.0 0.0 0.0 0.0 0.0 0.0 -0.402441 17.8068 2.58623 -1.17919e-09 2.068e-09 -3.24285e-10 -2.04074e-09 3.55664e-09 -5.49031e-10 -1.17919e-09 2.068e-09 -3.24303e-10 7.73091 5.47488 0.417314 -1.17919e-09 2.06799e-09 -3.24288e-10 2.90554 0.965183 0.102902 -1.17918e-09 2.068e-09 -3.24289e-10 10.2786 0.731801 0.0259123 -1.17919e-09 2.068e-09 -3.24284e-10 2.22167 -0.733487 -0.20892 0.0 0.0 0.0 0.0 0.0 0.0 0.0 0.0 0.0 1.32297 -30.829 4.809 -2.00894e-09 -6.87973e-10 1.33701e-09 -3.49203e-09 -1.19335e-09 2.26074e-09 -2.00894e-09 -6.87971e-10 1.33702e-09 -7.73091 5.47488 -0.417314 -2.00894e-09 -6.87972e-10 1.33701e-09 -2.90554 0.965183 -0.102902 -2.00895e-09 -6.87971e-10 1.33701e-09 -10.2786 0.731801 -0.0259123 -2.00894e-09 -6.87972e-10 1.337e-09 -2.22167 -0.733487 0.20892 -2.03217e-16 0.0 -3.88251e-19 -10.722 -27.006 -15.7294 -2.24862 71.5189 2.81942 -0.23487 6.42585 -12.4396 2.03217e-16 0.0 3.88251e-19 25.6104 -50.9961 44.2889 0.55762 44.6723 -0.104859 -0.0701983 -3.32812 -4.81588
2.2978000000000005 78.8621 3.953099999999992 -2.5881 7.2788 12.2228 -5.31583 8.36486 5.78611 -2.23139 -0.161123 1.45136 2.79997 10.7001 -2.70229 2.29711 -32.03 -5.08618 -0.0 0.0 0.0 -0.0 0.0 0.0 0.0 0.0 0.0 0.0 0.0 0.0 0.0 0.0 0.0 -0.340547 16.429 2.37396 -3.64827e-10 9.82631e-10 -4.26668e-11 -6.28895e-10 1.69497e-09 -7.53551e-11 -3.64825e-10 9.82633e-10 -4.26828e-11 7.73091 5.47488 0.417314 -3.64826e-10 9.82627e-10 -4.26743e-11 2.90554 0.965183 0.102902 -3.64821e-10 9.82627e-10 -4.26718e-11 10.2786 0.731801 0.0259123 -3.64837e-10 9.82631e-10 -4.2665e-11 2.22167 -0.733487 -0.20892 0.0 0.0 0.0 0.0 0.0 0.0 0.0 0.0 0.0 1.17922 -29.3055 4.52195 -1.54817e-09 -4.62001e-10 1.12597e-09 -2.69187e-09 -8.03971e-10 1.91058e-09 -1.54817e-09 -4.61999e-10 1.12599e-09 -7.73091 5.47488 -0.417314 -1.54817e-09 -4.62e-10 1.12597e-09 -2.90554 0.965183 -0.102902 -1.54818e-09 -4.62e-10 1.12597e-09 -10.2786 0.731801 -0.0259123 -1.54817e-09 -4.62e-10 1.12596e-09 -2.22167 -0.733487 0.20892 -2.03217e-16 0.0 -3.88251e-19 -11.7014 -29.0791 -16.528 -2.66425 73.7012 3.26153 -0.266764 6.20326 -9.25998 2.03217e-16 0.0 3.88251e-19 24.34 -50.5737 43.3939 0.54816 44.5248 -0.126917 -0.171386 -3.99082 -5.04699
2.6707 79.0256 4.646699999999996 -2.2551 7.6967 12.2077 -5.43266 8.74417 5.39491 -2.09215 -0.235586 1.33834 2.79012 10.7448 -2.71122 2.27102 -32.0541 -5.10816 -0.0 0.0 0.0 -0.0 0.0 0.0 0.0 0.0 0.0 0.0 0.0 0.0 0.0 0.0 0.0 -0.2784 14.8542 2.13576 3.02522e-10 -2.68195e-10 3.51297e-10 5.30263e-10 -4.55646e-10 5.94165e-10 3.02528e-10 -2.68198e-10 3.51284e-10 7.73091 5.47488 0.417314 3.02525e-10 -2.68202e-10 3.51286e-10 2.90554 0.965183 0.102902 3.02527e-10 -2.68202e-10 3.51292e-10 10.2786 0.731801 0.0259123 3.0251e-10 -2.68198e-10 3.51301e-10 2.22167 -0.733487 -0.20892 0.0 0.0 0.0 0.0 0.0 0.0 0.0 0.0 0.0 1.03504 -27.6135 4.21483 -1.09686e-09 -2.28047e-10 8.14217e-10 -1.90582e-09 -3.99691e-10 1.38649e-09 -1.09686e-09 -2.28045e-10 8.14231e-10 -7.73091 5.47488 -0.417314 -1.09686e-09 -2.28047e-10 8.14217e-10 -2.90554 0.965183 -0.102902 -1.09687e-09 -2.28046e-10 8.14217e-10 -10.2786 0.731801 -0.0259123 -1.09686e-09 -2.28046e-10 8.1421e-10 -2.22167 -0.733487 0.20892 -2.03217e-16 0.0 -3.88251e-19 -12.7099 -31.1399 -17.3355 -3.16224 75.6948 3.78555 -0.266198 5.91858 -6.19227 2.03217e-16 0.0 3.88251e-19 23.0887 -50.1227 42.5008 0.538068 44.3841 -0.15384 -0.272392 -4.66939 -5.2355
